<?xml version="1.0" standalone="no"?>
<!DOCTYPE svg PUBLIC "-//W3C//DTD SVG 20010904//EN"
 "http://www.w3.org/TR/2001/REC-SVG-20010904/DTD/svg10.dtd">
<svg version="1.0" xmlns="http://www.w3.org/2000/svg" viewBox="0 0 208.000000 342.000000"
 preserveAspectRatio="xMidYMid meet">
<g transform="translate(0.000000,342.000000) scale(0.100000,-0.100000)"
fill="#95a5a6" stroke="none">
<path d="M236 3351 c-20 -89 -20 -220 0 -296 42 -165 177 -281 387 -334 63
-17 366 -61 412 -61 12 0 10 -7 -5 -32 -70 -116 41 -278 189 -278 49 0 117 26
140 53 12 15 10 17 -25 17 -104 0 -191 115 -140 185 13 19 16 19 68 2 146 -46
290 -179 358 -328 l18 -41 -45 -41 -45 -41 41 -14 c49 -16 113 -85 137 -148 9
-24 20 -44 25 -44 9 0 71 84 94 129 19 37 22 115 6 134 -7 9 -4 21 10 42 38
57 89 165 104 222 20 75 19 206 -1 274 -21 70 -43 112 -91 177 l-40 52 18 53
c10 28 18 75 19 103 0 49 -24 151 -40 167 -4 5 -22 -11 -39 -36 -36 -53 -106
-115 -139 -124 -12 -3 -55 5 -95 18 -111 37 -309 33 -563 -9 -270 -45 -390
-42 -510 14 -92 43 -190 150 -209 227 -11 44 -22 32 -39 -42z"/>
<path d="M350 2645 c-155 -125 -255 -270 -316 -455 -26 -79 -28 -97 -28 -245
0 -143 3 -171 28 -270 80 -312 208 -518 528 -852 298 -310 425 -555 391 -755
-6 -35 -9 -65 -7 -67 8 -9 138 33 241 78 258 112 480 292 646 524 114 159 212
392 237 565 18 120 8 368 -18 452 -26 87 -78 209 -101 240 -18 23 -18 21 1
-55 28 -110 31 -332 5 -425 -34 -120 -98 -230 -195 -332 l-45 -47 -34 102
c-61 182 -147 319 -298 476 -109 113 -229 204 -395 301 -164 95 -256 159 -340
237 -158 147 -242 304 -259 486 l-6 70 -35 -28z"/>
</g>
</svg>
